<svg width="640px" height="640px" version="1.1" xmlns="http://www.w3.org/2000/svg">
    <g stroke="black" fill="white" stroke-width="10" transform="translate(320,150),scale(0.5,0.5)">
      <g>
        <line x1="0" y1="0" x2="-150" y2="259.807621135"/>
        <line x1="0" y1="0" x2="150" y2="259.807621135"/>
        <circle cx="0" cy="0" r="100"/>
        <g transform="translate(150,259.807621135)">
          <circle cx="0" cy="0" r="100"/>
        </g>
        <g transform="translate(-150,259.807621135)">
          <line x1="0" y1="0" x2="-150" y2="259.807621135"/>
          <line x1="0" y1="0" x2="150" y2="259.807621135"/>
          <circle cx="0" cy="0" r="100"/>
          <g transform="translate(150,259.807621135)">
            <circle cx="0" cy="0" r="100"/>
          </g>
          <g transform="translate(-150,259.807621135)">
            <line x1="0" y1="0" x2="-150" y2="259.807621135"/>
            <line x1="0" y1="0" x2="150" y2="259.807621135"/>
            <circle cx="0" cy="0" r="100"/>
            <g transform="translate(150,259.807621135)">
              <circle cx="0" cy="0" r="100"/>
            </g>
            <g transform="translate(-150,259.807621135)">
              <circle cx="0" cy="0" r="100"/>
            </g>
          </g>
        </g>
      </g>
    </g>
</svg>
